<svg xmlns="http://www.w3.org/2000/svg" viewBox="0 0 64 64">
  <defs>
    <radialGradient id="bg" cx="50%" cy="38%" r="70%">
      <stop offset="0%" stop-color="#8B6CAB"/>
      <stop offset="58%" stop-color="#6B4C9A"/>
      <stop offset="100%" stop-color="#2D1B4E"/>
    </radialGradient>
    <linearGradient id="gold" x1="14" y1="12" x2="50" y2="52">
      <stop offset="0%" stop-color="#FFF1A8"/>
      <stop offset="45%" stop-color="#D4AF37"/>
      <stop offset="100%" stop-color="#A97916"/>
    </linearGradient>
  </defs>
  <rect width="64" height="64" rx="14" fill="url(#bg)"/>
  <path d="M13 45h38l-3 7H16l-3-7Z" fill="url(#gold)"/>
  <path d="M15 42 20 18l11 18 12-18 6 24H15Z" fill="url(#gold)"/>
  <path d="M20 18 31 36 43 18 37 42H15l5-24Z" fill="none" stroke="#FFF5BF" stroke-width="1.5" stroke-linejoin="round" opacity=".7"/>
  <circle cx="20" cy="18" r="4" fill="#F5D76E"/>
  <circle cx="43" cy="18" r="4" fill="#F5D76E"/>
  <circle cx="32" cy="11" r="5" fill="#F8DF83"/>
  <path d="M32 23 35 30l8 1-6 5 2 8-7-4-7 4 2-8-6-5 8-1 3-7Z" fill="#FAF8FC" opacity=".9"/>
  <path d="M32 23 35 30l8 1-6 5 2 8-7-4-7 4 2-8-6-5 8-1 3-7Z" fill="none" stroke="#D4AF37" stroke-width="1"/>
</svg>
